<svg width="42" height="42" viewBox="0 0 42 42" fill="none" xmlns="http://www.w3.org/2000/svg">
<path fill-rule="evenodd" clip-rule="evenodd" d="M19.5001 0V4.50002H22.5001V0H19.5001ZM27.9187 28.8986C30.114 26.9741 31.5001 24.149 31.5001 21.0001C31.5001 15.2011 26.7991 10.5 21.0001 10.5C15.2011 10.5 10.5 15.2011 10.5 21.0001C10.5 21.2128 10.5064 21.424 10.5188 21.6336C9.4917 21.9946 8.53277 22.5004 7.66655 23.1266C7.55695 22.4338 7.50003 21.7236 7.50003 21.0001C7.50003 13.5442 13.5442 7.50003 21.0001 7.50003C28.456 7.50003 34.5001 13.5442 34.5001 21.0001C34.5001 24.7029 33.0094 28.0575 30.5953 30.4965C29.8331 29.7905 28.9238 29.2409 27.9187 28.8986ZM37.5001 19.5001H42.0002V22.5001H37.5001V19.5001ZM38.4366 9.201L34.5395 11.451L36.0395 14.0491L39.9366 11.7991L38.4366 9.201ZM27.9512 5.96074L30.2012 2.06361L32.7993 3.56361L30.5492 7.46074L27.9512 5.96074ZM9.201 3.56361L11.451 7.46074L14.0491 5.96074L11.7991 2.06361L9.201 3.56361ZM5.96064 14.0491L2.06352 11.7991L3.56352 9.201L7.46065 11.451L5.96064 14.0491ZM4.50002 19.5001H0V22.5001H4.50002V19.5001ZM38.4367 32.7992L34.5396 30.5492L36.0396 27.9511L39.9367 30.2011L38.4367 32.7992Z" fill="url(#paint0_linear_38_471)"/>
<path fill-rule="evenodd" clip-rule="evenodd" d="M14.2501 38.9998C14.2918 38.9998 14.3335 38.9995 14.3751 38.9989H25.3999C25.4191 38.9993 25.4383 38.9996 25.4576 38.9998H25.5002C25.5001 38.9998 25.5002 38.9998 25.5002 38.9998C27.9854 38.9998 30.0002 36.9853 30.0002 34.5C30.0002 32.0147 27.9855 29.9999 25.5002 29.9999C24.3461 29.9999 23.2935 30.4344 22.4969 31.1486C22.5032 31.0166 22.5064 30.8837 22.5064 30.7501C22.5064 29.7372 22.3239 28.7669 21.9899 27.8704C23.0372 27.3147 24.2319 26.9999 25.5002 26.9999C29.6423 26.9999 33.0002 30.3578 33.0002 34.5C33.0002 38.6421 29.6423 42 25.5002 42C25.4818 42 25.4635 41.9999 25.4452 41.9998L14.3082 41.9998C14.2889 41.9999 14.2695 41.9998 14.2501 41.9998C8.03688 41.9998 3.00006 36.963 3.00006 30.7498C3.00006 24.5365 8.03688 19.4997 14.2501 19.4997C19.1583 19.4997 23.3323 22.6428 24.8693 27.026C23.8337 27.1122 22.8579 27.4089 21.9848 27.873C20.8172 24.7351 17.7947 22.4997 14.2501 22.4997C9.69374 22.4997 6.00007 26.1934 6.00007 30.7498C6.00007 35.3061 9.69374 38.9998 14.2501 38.9998Z" fill="url(#paint1_linear_38_471)"/>
<defs>
<linearGradient id="paint0_linear_38_471" x1="21.0001" y1="0" x2="21.0001" y2="32.7992" gradientUnits="userSpaceOnUse">
<stop stop-color="#EFC977"/>
<stop offset="1" stop-color="#E07256"/>
</linearGradient>
<linearGradient id="paint1_linear_38_471" x1="18.0001" y1="19.4997" x2="18.0001" y2="42" gradientUnits="userSpaceOnUse">
<stop stop-color="#B2D4F7"/>
<stop offset="1" stop-color="#D9E2F3"/>
</linearGradient>
</defs>
</svg>
