<svg width="35" height="35" viewBox="0 0 35 35" fill="none" xmlns="http://www.w3.org/2000/svg">
<path d="M33.9999 23.4999C33.9999 29.3049 29.3049 33.9999 23.4999 33.9999L25.0749 31.3749" stroke="white" stroke-opacity="0.7" stroke-linecap="round" stroke-linejoin="round"/>
<path d="M1 11.5C1 5.695 5.695 1 11.5 1L9.925 3.625" stroke="white" stroke-opacity="0.7" stroke-linecap="round" stroke-linejoin="round"/>
<path d="M21.7751 22.54C21.7751 27.6549 17.6351 31.7948 12.5201 31.7948C7.40507 31.7948 3.26508 27.6549 3.26508 22.54C3.26508 17.425 7.40507 13.2848 12.5201 13.2848C12.7601 13.2848 12.9851 13.2998 13.2401 13.3148C17.7851 13.6598 21.4151 17.2898 21.7601 21.8348C21.7601 22.0598 21.7751 22.285 21.7751 22.54Z" stroke="white" stroke-opacity="0.7" stroke-miterlimit="10" stroke-linecap="round" stroke-linejoin="round"/>
<path d="M31.75 12.5501C31.75 17.6651 27.61 21.8051 22.495 21.8051H21.76C21.415 17.2601 17.785 13.6301 13.24 13.2851V12.5501C13.24 7.43507 17.38 3.2951 22.495 3.2951C27.61 3.2951 31.75 7.43507 31.75 12.5501Z" stroke="white" stroke-opacity="0.7" stroke-miterlimit="10" stroke-linecap="round" stroke-linejoin="round"/>
<path d="M14.6795 23.8757C14.6795 24.3309 14.501 24.7601 14.177 25.0836C13.8535 25.4075 13.4244 25.5861 12.9691 25.5861H12.894V26.249C12.894 26.371 12.795 26.47 12.673 26.47C12.551 26.47 12.452 26.371 12.452 26.249V25.5861H12.4122C11.5402 25.5861 10.8097 24.932 10.712 24.064C10.6983 23.9429 10.7858 23.8337 10.9069 23.8196C11.0262 23.8076 11.1376 23.8933 11.1513 24.0144C11.2238 24.6584 11.7657 25.1441 12.4122 25.1441H12.9691C13.3063 25.1441 13.6241 25.0115 13.8646 24.7711C14.105 24.5307 14.2376 24.2129 14.2376 23.8757C14.2376 23.2945 13.8424 22.788 13.2772 22.6448L11.9964 22.327C11.6256 22.2333 11.2941 22.0167 11.062 21.7175C10.8305 21.4241 10.7018 21.0506 10.7018 20.6674C10.7018 19.7243 11.4691 18.957 12.4122 18.957H12.452V18.2941C12.452 18.1721 12.551 18.0731 12.673 18.0731C12.795 18.0731 12.894 18.1721 12.894 18.2941V18.957H12.9691C13.8411 18.957 14.5717 19.6111 14.6694 20.4791C14.6831 20.6002 14.5956 20.7094 14.4745 20.7236C14.3551 20.7368 14.2442 20.6498 14.2301 20.5287C14.1576 19.8847 13.6157 19.399 12.9691 19.399H12.4122C11.7126 19.399 11.1438 19.9682 11.1438 20.6674C11.1438 20.9516 11.2384 21.2278 11.4099 21.4453C11.5831 21.6685 11.8293 21.8289 12.1038 21.8983L13.3846 22.2161C14.1474 22.4092 14.6795 23.0916 14.6795 23.8757Z" fill="white"/>
<path d="M25.5701 15.8874C25.5242 15.7739 25.3951 15.7199 25.2828 15.765C24.8864 15.9246 24.4679 16.0054 24.0396 16.0054C22.5997 16.0054 21.3745 15.0808 20.9184 13.7956H23.5972C23.7192 13.7956 23.8182 13.6966 23.8182 13.5746C23.8182 13.4526 23.7192 13.3536 23.5972 13.3536H20.7911C20.7474 13.1393 20.7244 12.9179 20.7244 12.6907C20.7244 12.4635 20.7474 12.2421 20.7911 12.0277H23.5972C23.7192 12.0277 23.8182 11.9287 23.8182 11.8068C23.8182 11.6848 23.7192 11.5858 23.5972 11.5858H20.918C21.3745 10.3005 22.5992 9.37595 24.0391 9.37595C24.4709 9.37595 24.8886 9.45815 25.2806 9.61991C25.3933 9.66632 25.5228 9.61329 25.5692 9.50014C25.6156 9.38744 25.5622 9.25797 25.4495 9.21156C25.0035 9.02726 24.5293 8.93398 24.0391 8.93398C22.3522 8.93398 20.9215 10.0522 20.4486 11.5858H19.1775C19.0555 11.5858 18.9565 11.6848 18.9565 11.8068C18.9565 11.9287 19.0555 12.0277 19.1775 12.0277H20.3448C20.3063 12.2434 20.2824 12.464 20.2824 12.6907C20.2824 12.9174 20.3059 13.138 20.3448 13.3536H19.1775C19.0555 13.3536 18.9565 13.4526 18.9565 13.5746C18.9565 13.6966 19.0555 13.7956 19.1775 13.7956H20.4486C20.9215 15.3292 22.3522 16.4474 24.0391 16.4474C24.5244 16.4474 24.9982 16.3555 25.4477 16.1752C25.5608 16.1296 25.6156 16.0006 25.5701 15.8874Z" fill="white"/>
</svg>
