<svg width="42" height="42" viewBox="0 0 42 42" fill="none" xmlns="http://www.w3.org/2000/svg">
<path fill-rule="evenodd" clip-rule="evenodd" d="M22.752 21.9935L25.2481 23.6827L20.8028 30.4508H28.4337L20.2161 42L17.784 40.2171L22.5664 33.4959H15.1973L22.752 21.9935Z" fill="url(#paint0_linear_38_474)"/>
<path fill-rule="evenodd" clip-rule="evenodd" d="M38.9677 17.0691C40.8355 15.2662 41.9999 12.7194 41.9999 9.8965C41.9999 4.43081 37.6347 0 32.2499 0C28.8814 0 25.9119 1.7339 24.1603 4.37038C24.9266 5.10599 25.62 5.91886 26.2286 6.79671C27.3433 4.57042 29.6211 3.04508 32.2499 3.04508C35.9778 3.04508 38.9999 6.11256 38.9999 9.8965C38.9999 11.5805 38.4014 13.1225 37.4085 14.3155C38.0649 15.1349 38.5947 16.063 38.9677 17.0691Z" fill="url(#paint1_linear_38_474)"/>
<path fill-rule="evenodd" clip-rule="evenodd" d="M12 32.9859C5.10356 31.1508 0 24.5767 0 16.7479C0 7.4983 7.12424 0 15.9124 0C23.2034 0 29.3491 5.16105 31.2315 12.2014C31.444 12.1874 31.6582 12.1803 31.8739 12.1803C37.4664 12.1803 42 16.952 42 22.8381C42 28.7242 37.4664 33.4958 31.8739 33.4958C31.7487 33.4958 31.6241 33.4934 31.5 33.4887V30.4508H31.9544V30.4502C35.7539 30.4044 39 27.1172 39 22.8381C39 18.5287 35.708 15.2254 31.8739 15.2254C30.7908 15.2254 29.7509 15.489 28.8162 15.9645C28.7686 15.0787 28.6406 14.2155 28.4398 13.383L28.4353 13.3849C27.0137 7.38438 21.8758 3.04508 15.9124 3.04508C8.88269 3.04508 3 9.07504 3 16.7479C3 22.9382 6.82891 28.0591 12 29.807V32.9859Z" fill="url(#paint2_linear_38_474)"/>
<defs>
<linearGradient id="paint0_linear_38_474" x1="21.8155" y1="21.9935" x2="21.8155" y2="42" gradientUnits="userSpaceOnUse">
<stop stop-color="#F5BD52"/>
<stop offset="1" stop-color="#F5DA79"/>
</linearGradient>
<linearGradient id="paint1_linear_38_474" x1="33.0801" y1="0" x2="33.0801" y2="17.0691" gradientUnits="userSpaceOnUse">
<stop stop-color="#EFC977"/>
<stop offset="1" stop-color="#E07256"/>
</linearGradient>
<linearGradient id="paint2_linear_38_474" x1="21" y1="0" x2="21" y2="33.4958" gradientUnits="userSpaceOnUse">
<stop stop-color="#95B6F6"/>
<stop offset="1" stop-color="#5193DE"/>
</linearGradient>
</defs>
</svg>
