<svg width="42" height="42" viewBox="0 0 42 42" fill="none" xmlns="http://www.w3.org/2000/svg">
<path fill-rule="evenodd" clip-rule="evenodd" d="M41.7235 10.1508C42.0436 8.95532 42.0776 7.75057 41.8676 6.60932C41.056 8.46665 38.9975 9.5181 36.9679 9.00361C36.3039 8.83529 35.7169 8.51811 35.2336 8.09676C35.0231 7.94153 34.8315 7.76096 34.6634 7.55862C34.3681 7.20323 34.1521 6.78884 34.0297 6.34317L34.0172 6.29643C33.755 5.54334 33.703 4.70767 33.9132 3.87694C34.3387 2.19575 35.7187 1.00861 37.3279 0.747495C36.9154 0.5569 36.481 0.398762 36.0272 0.277069C31.9863 -0.806523 27.8394 1.38544 26.4014 5.22663C27.3408 6.05372 28.1761 6.99655 28.8848 8.03286C28.8878 7.61057 28.9441 7.1817 29.0584 6.75463C29.3788 5.55816 30.1012 4.57765 31.0409 3.91922C30.9926 4.10825 30.953 4.29978 30.9224 4.49322C30.7816 5.38157 30.832 6.28975 31.0701 7.15705C31.3083 8.02435 31.7287 8.83077 32.3033 9.52239C32.8779 10.214 33.5934 10.7749 34.4021 11.1675C35.2107 11.5601 36.0937 11.7754 36.9922 11.7991C37.1137 11.8022 37.2351 11.8019 37.3563 11.7981C36.1245 12.9246 34.3628 13.4173 32.6332 12.9535C31.9563 12.772 31.3483 12.4611 30.8288 12.0546C30.9753 12.5279 31.099 13.0113 31.1986 13.5035C31.2979 13.5002 31.3976 13.4986 31.4977 13.4986C33.6251 13.4986 35.5801 14.2373 37.1205 15.4725C39.3083 14.5307 41.0592 12.6317 41.7235 10.1508Z" fill="url(#paint0_linear_38_478)"/>
<path fill-rule="evenodd" clip-rule="evenodd" d="M0 16.5C0 23.0442 3.67381 28.6985 8.99935 31.3661V27.9005C5.4149 25.5229 2.99978 21.3438 2.99978 16.5C2.99978 8.94072 8.88205 3.00001 15.9113 3.00001C21.8742 3.00001 27.0118 7.27508 28.4332 13.1868L28.4378 13.1849C28.6385 14.0051 28.7665 14.8555 28.8142 15.7283C29.7487 15.2598 30.7886 15 31.8717 15C35.7054 15 38.9972 18.2544 38.9972 22.5C38.9972 25.0658 37.795 27.2696 35.9974 28.6118V32.0917C39.533 30.4538 41.997 26.7753 41.997 22.5C41.997 16.701 37.4637 12 31.8717 12C31.6559 12 31.4417 12.007 31.2293 12.0208C29.347 5.08466 23.2018 0 15.9113 0C7.12372 0 0 7.38732 0 16.5ZM25.0766 27.3039C25.3911 27.4856 25.8838 27.4063 26.1357 26.9697C26.2737 26.7307 26.451 26.2342 26.5795 25.4258C26.6307 25.1035 26.6693 24.7636 26.6972 24.4146C25.8212 25.0345 25.1575 25.6627 24.8363 26.2192C24.5844 26.6557 24.7621 27.1222 25.0766 27.3039ZM26.6896 20.8826C28.253 20.0066 29.5767 19.5062 29.5767 19.5062C29.5767 19.5062 29.7498 20.9148 29.7566 22.6896C29.764 24.6338 29.5717 27.0175 28.7334 28.4701C27.6791 30.297 25.3706 30.9381 23.5771 29.9022C21.7836 28.8663 21.1844 26.5456 22.2387 24.7188C23.1586 23.1247 25.0552 21.7984 26.6896 20.8826ZM15.173 28.8306C15.4876 29.0123 15.9802 28.933 16.2322 28.4965C16.3701 28.2574 16.5475 27.7609 16.6759 26.9525C16.7271 26.6303 16.7657 26.2904 16.7937 25.9414C15.9177 26.5612 15.2539 27.1894 14.9328 27.7459C14.6808 28.1825 14.8585 28.649 15.173 28.8306ZM16.7861 22.4093C18.3495 21.5333 19.6731 21.0329 19.6731 21.0329C19.6731 21.0329 19.8463 22.4416 19.853 24.2163C19.8604 26.1606 19.6682 28.5442 18.8298 29.9969C17.7756 31.8237 15.467 32.4649 13.6736 31.429C11.8801 30.3931 11.2808 28.0724 12.3351 26.2455C13.2551 24.6514 15.1516 23.3251 16.7861 22.4093ZM29.5168 36.1693C29.2649 36.6059 28.7722 36.6852 28.4577 36.5035C28.1432 36.3219 27.9655 35.8553 28.2174 35.4188C28.5386 34.8623 29.2023 34.2341 30.0783 33.6142C30.0504 33.9632 30.0118 34.3031 29.9605 34.6254C29.8321 35.4338 29.6548 35.9303 29.5168 36.1693ZM32.9577 28.7058C32.9577 28.7058 31.6341 29.2062 30.0707 30.0822C28.4362 30.998 26.5397 32.3243 25.6197 33.9184C24.5655 35.7452 25.1647 38.0659 26.9582 39.1018C28.7516 40.1377 31.0602 39.4966 32.1145 37.6697C32.9528 36.2171 33.1451 33.8334 33.1377 31.8892C33.1309 30.1144 32.9577 28.7058 32.9577 28.7058ZM18.3809 38.9062C18.6954 39.0879 19.1881 39.0086 19.44 38.5721C19.578 38.333 19.7553 37.8365 19.8838 37.0281C19.935 36.7058 19.9736 36.366 20.0016 36.017C19.1255 36.6368 18.4618 37.265 18.1406 37.8215C17.8887 38.2581 18.0664 38.7246 18.3809 38.9062ZM19.9939 32.4849C21.5573 31.6089 22.881 31.1085 22.881 31.1085C22.881 31.1085 23.0541 32.5171 23.0609 34.2919C23.0683 36.2361 22.876 38.6198 22.0377 40.0725C20.9834 41.8993 18.6749 42.5405 16.8814 41.5045C15.088 40.4686 14.4887 38.1479 15.543 36.3211C16.463 34.727 18.3595 33.4007 19.9939 32.4849Z" fill="url(#paint1_linear_38_478)"/>
<defs>
<linearGradient id="paint0_linear_38_478" x1="34.2007" y1="0.000366211" x2="34.2007" y2="15.4725" gradientUnits="userSpaceOnUse">
<stop stop-color="#F5BD52"/>
<stop offset="1" stop-color="#F5DA79"/>
</linearGradient>
<linearGradient id="paint1_linear_38_478" x1="20.9985" y1="0" x2="20.9985" y2="42" gradientUnits="userSpaceOnUse">
<stop stop-color="#95B6F6"/>
<stop offset="1" stop-color="#5193DE"/>
</linearGradient>
</defs>
</svg>
