<svg width="29" height="29" viewBox="0 0 29 29" fill="none" xmlns="http://www.w3.org/2000/svg">
<path d="M20.234 18.676V3.95C20.234 1.77195 18.462 0 16.284 0C14.1059 0 12.334 1.77195 12.334 3.95V18.676C8.29911 22.3044 10.8875 29 16.284 29C21.6911 29 24.2627 22.299 20.234 18.676ZM14.4559 3.95C14.4559 2.94203 15.2759 2.12193 16.2839 2.12193C17.2919 2.12193 18.112 2.94197 18.112 3.95V12.9688H14.4559V3.95ZM16.284 26.8781C12.6367 26.8781 11.0966 22.2018 14.0267 20.0301C14.2967 19.8299 14.4559 19.5137 14.4559 19.1777V15.0909H18.112V19.1777C18.112 19.5137 18.2713 19.8299 18.5413 20.0301C21.4696 22.2006 19.935 26.8781 16.284 26.8781Z" fill="white"/>
<path d="M9.64193 13.439H7.85866C7.27271 13.439 6.79767 13.9141 6.79767 14.5C6.79767 15.0859 7.27271 15.561 7.85866 15.561H9.64193C10.2279 15.561 10.7029 15.0859 10.7029 14.5C10.7029 13.9141 10.2279 13.439 9.64193 13.439Z" fill="white"/>
<path d="M9.64193 9.94417H7.85866C7.27271 9.94417 6.79767 10.4192 6.79767 11.0052C6.79767 11.5911 7.27271 12.0662 7.85866 12.0662H9.64193C10.2279 12.0662 10.7029 11.5911 10.7029 11.0052C10.7029 10.4192 10.2279 9.94417 9.64193 9.94417Z" fill="white"/>
<path d="M9.64193 6.44933H7.85866C7.27271 6.44933 6.79767 6.92437 6.79767 7.51032C6.79767 8.09627 7.27271 8.57131 7.85866 8.57131H9.64193C10.2279 8.57131 10.7029 8.09627 10.7029 7.51032C10.7029 6.92437 10.2279 6.44933 9.64193 6.44933Z" fill="white"/>
</svg>
